<svg width="108" height="27" viewBox="0 0 108 27" fill="none" xmlns="http://www.w3.org/2000/svg">
<g filter="url(#filter0_d_5_32)">
<path d="M15.928 15.808H9.256L8.152 19H4.624L10.648 2.224H14.56L20.584 19H17.032L15.928 15.808ZM15.016 13.12L12.592 6.112L10.168 13.12H15.016ZM26.1957 1.24V19H22.8357V1.24H26.1957ZM37.3874 19L32.8754 13.336V19H29.5154V1.24H32.8754V11.344L37.3394 5.704H41.7074L35.8514 12.376L41.7554 19H37.3874ZM45.235 4.12C44.643 4.12 44.147 3.936 43.747 3.568C43.363 3.184 43.171 2.712 43.171 2.152C43.171 1.592 43.363 1.128 43.747 0.759999C44.147 0.375999 44.643 0.183999 45.235 0.183999C45.827 0.183999 46.315 0.375999 46.699 0.759999C47.099 1.128 47.299 1.592 47.299 2.152C47.299 2.712 47.099 3.184 46.699 3.568C46.315 3.936 45.827 4.12 45.235 4.12ZM46.891 5.704V19H43.531V5.704H46.891ZM66.7227 5.512C68.3547 5.512 69.6667 6.016 70.6587 7.024C71.6667 8.016 72.1707 9.408 72.1707 11.2V19H68.8107V11.656C68.8107 10.616 68.5467 9.824 68.0187 9.28C67.4907 8.72 66.7707 8.44 65.8587 8.44C64.9467 8.44 64.2187 8.72 63.6747 9.28C63.1467 9.824 62.8827 10.616 62.8827 11.656V19H59.5227V11.656C59.5227 10.616 59.2587 9.824 58.7307 9.28C58.2027 8.72 57.4827 8.44 56.5707 8.44C55.6427 8.44 54.9067 8.72 54.3627 9.28C53.8347 9.824 53.5707 10.616 53.5707 11.656V19H50.2107V5.704H53.5707V7.312C54.0027 6.752 54.5547 6.312 55.2267 5.992C55.9147 5.672 56.6667 5.512 57.4827 5.512C58.5227 5.512 59.4507 5.736 60.2667 6.184C61.0827 6.616 61.7147 7.24 62.1627 8.056C62.5947 7.288 63.2187 6.672 64.0347 6.208C64.8667 5.744 65.7627 5.512 66.7227 5.512ZM77.0631 4.12C76.4711 4.12 75.9751 3.936 75.5751 3.568C75.1911 3.184 74.9991 2.712 74.9991 2.152C74.9991 1.592 75.1911 1.128 75.5751 0.759999C75.9751 0.375999 76.4711 0.183999 77.0631 0.183999C77.6551 0.183999 78.1431 0.375999 78.5271 0.759999C78.9271 1.128 79.1271 1.592 79.1271 2.152C79.1271 2.712 78.9271 3.184 78.5271 3.568C78.1431 3.936 77.6551 4.12 77.0631 4.12ZM78.7191 5.704V19H75.3591V5.704H78.7191ZM98.5508 5.512C100.183 5.512 101.495 6.016 102.487 7.024C103.495 8.016 103.999 9.408 103.999 11.2V19H100.639V11.656C100.639 10.616 100.375 9.824 99.8468 9.28C99.3188 8.72 98.5988 8.44 97.6868 8.44C96.7748 8.44 96.0468 8.72 95.5028 9.28C94.9748 9.824 94.7108 10.616 94.7108 11.656V19H91.3508V11.656C91.3508 10.616 91.0868 9.824 90.5588 9.28C90.0308 8.72 89.3108 8.44 88.3988 8.44C87.4708 8.44 86.7348 8.72 86.1908 9.28C85.6628 9.824 85.3988 10.616 85.3988 11.656V19H82.0388V5.704H85.3988V7.312C85.8308 6.752 86.3828 6.312 87.0548 5.992C87.7428 5.672 88.4948 5.512 89.3108 5.512C90.3508 5.512 91.2788 5.736 92.0948 6.184C92.9108 6.616 93.5428 7.24 93.9908 8.056C94.4228 7.288 95.0468 6.672 95.8628 6.208C96.6948 5.744 97.5908 5.512 98.5508 5.512Z" fill="white"/>
<path d="M15.928 15.808L16.8731 15.4811L16.6403 14.808H15.928V15.808ZM9.256 15.808V14.808H8.54374L8.31093 15.4811L9.256 15.808ZM8.152 19V20H8.86426L9.09707 19.3269L8.152 19ZM4.624 19L3.68284 18.662L3.2024 20H4.624V19ZM10.648 2.224V1.224H9.94457L9.70684 1.88604L10.648 2.224ZM14.56 2.224L15.5012 1.88604L15.2634 1.224H14.56V2.224ZM20.584 19V20H22.0056L21.5252 18.662L20.584 19ZM17.032 19L16.0869 19.3269L16.3197 20H17.032V19ZM15.016 13.12V14.12H16.42L15.9611 12.7931L15.016 13.12ZM12.592 6.112L13.5371 5.78511L12.592 3.05285L11.6469 5.78511L12.592 6.112ZM10.168 13.12L9.22294 12.7931L8.76398 14.12H10.168V13.12ZM15.928 14.808H9.256V16.808H15.928V14.808ZM8.31093 15.4811L7.20693 18.6731L9.09707 19.3269L10.2011 16.1349L8.31093 15.4811ZM8.152 18H4.624V20H8.152V18ZM5.56516 19.338L11.5892 2.56195L9.70684 1.88604L3.68284 18.662L5.56516 19.338ZM10.648 3.224H14.56V1.224H10.648V3.224ZM13.6188 2.56195L19.6428 19.338L21.5252 18.662L15.5012 1.88604L13.6188 2.56195ZM20.584 18H17.032V20H20.584V18ZM17.9771 18.6731L16.8731 15.4811L14.9829 16.1349L16.0869 19.3269L17.9771 18.6731ZM15.9611 12.7931L13.5371 5.78511L11.6469 6.43889L14.0709 13.4469L15.9611 12.7931ZM11.6469 5.78511L9.22294 12.7931L11.1131 13.4469L13.5371 6.43889L11.6469 5.78511ZM10.168 14.12H15.016V12.12H10.168V14.12ZM26.1957 1.24H27.1957V0.24H26.1957V1.24ZM26.1957 19V20H27.1957V19H26.1957ZM22.8357 19H21.8357V20H22.8357V19ZM22.8357 1.24V0.24H21.8357V1.24H22.8357ZM25.1957 1.24V19H27.1957V1.24H25.1957ZM26.1957 18H22.8357V20H26.1957V18ZM23.8357 19V1.24H21.8357V19H23.8357ZM22.8357 2.24H26.1957V0.24H22.8357V2.24ZM37.3874 19L36.6052 19.6231L36.9055 20H37.3874V19ZM32.8754 13.336L33.6575 12.7129L31.8754 10.4757V13.336H32.8754ZM32.8754 19V20H33.8754V19H32.8754ZM29.5154 19H28.5154V20H29.5154V19ZM29.5154 1.24V0.24H28.5154V1.24H29.5154ZM32.8754 1.24H33.8754V0.24H32.8754V1.24ZM32.8754 11.344H31.8754V14.2187L33.6595 11.9646L32.8754 11.344ZM37.3394 5.704V4.704H36.8555L36.5553 5.08338L37.3394 5.704ZM41.7074 5.704L42.4589 6.36365L43.9156 4.704H41.7074V5.704ZM35.8514 12.376L35.0998 11.7163L34.5164 12.3811L35.1049 13.0414L35.8514 12.376ZM41.7554 19V20H43.9862L42.5019 18.3346L41.7554 19ZM38.1695 18.3769L33.6575 12.7129L32.0932 13.9591L36.6052 19.6231L38.1695 18.3769ZM31.8754 13.336V19H33.8754V13.336H31.8754ZM32.8754 18H29.5154V20H32.8754V18ZM30.5154 19V1.24H28.5154V19H30.5154ZM29.5154 2.24H32.8754V0.24H29.5154V2.24ZM31.8754 1.24V11.344H33.8754V1.24H31.8754ZM33.6595 11.9646L38.1235 6.32462L36.5553 5.08338L32.0913 10.7234L33.6595 11.9646ZM37.3394 6.704H41.7074V4.704H37.3394V6.704ZM40.9558 5.04435L35.0998 11.7163L36.6029 13.0357L42.4589 6.36365L40.9558 5.04435ZM35.1049 13.0414L41.0089 19.6654L42.5019 18.3346L36.5979 11.7106L35.1049 13.0414ZM41.7554 18H37.3874V20H41.7554V18ZM43.747 3.568L43.0399 4.27511L43.0546 4.28983L43.0699 4.30393L43.747 3.568ZM43.747 0.759999L44.4389 1.48199L44.4395 1.48139L43.747 0.759999ZM46.699 0.759999L45.9919 1.46711L46.0066 1.48183L46.0219 1.49593L46.699 0.759999ZM46.699 3.568L47.3909 4.28999L47.3915 4.28939L46.699 3.568ZM46.891 5.704H47.891V4.704H46.891V5.704ZM46.891 19V20H47.891V19H46.891ZM43.531 19H42.531V20H43.531V19ZM43.531 5.704V4.704H42.531V5.704H43.531ZM45.235 3.12C44.8695 3.12 44.6223 3.01447 44.4241 2.83207L43.0699 4.30393C43.6717 4.85753 44.4165 5.12 45.235 5.12V3.12ZM44.4541 2.86089C44.2641 2.67087 44.171 2.45603 44.171 2.152H42.171C42.171 2.96796 42.4619 3.69713 43.0399 4.27511L44.4541 2.86089ZM44.171 2.152C44.171 1.84845 44.2631 1.65049 44.4389 1.48199L43.0551 0.0380106C42.4629 0.605508 42.171 1.33555 42.171 2.152H44.171ZM44.4395 1.48139C44.6399 1.28905 44.8819 1.184 45.235 1.184V-0.816001C44.4041 -0.816001 43.6541 -0.537054 43.0545 0.0386114L44.4395 1.48139ZM45.235 1.184C45.5881 1.184 45.8133 1.28847 45.9919 1.46711L47.4061 0.0528917C46.8167 -0.536475 46.0659 -0.816001 45.235 -0.816001V1.184ZM46.0219 1.49593C46.2092 1.66816 46.299 1.86207 46.299 2.152H48.299C48.299 1.32193 47.9888 0.587833 47.3761 0.0240679L46.0219 1.49593ZM46.299 2.152C46.299 2.44277 46.2078 2.6533 46.0065 2.84661L47.3915 4.28939C47.9902 3.7147 48.299 2.98123 48.299 2.152H46.299ZM46.0071 2.84601C45.831 3.0148 45.6009 3.12 45.235 3.12V5.12C46.0531 5.12 46.799 4.8572 47.3909 4.28999L46.0071 2.84601ZM45.891 5.704V19H47.891V5.704H45.891ZM46.891 18H43.531V20H46.891V18ZM44.531 19V5.704H42.531V19H44.531ZM43.531 6.704H46.891V4.704H43.531V6.704ZM70.6587 7.024L69.9459 7.72543L69.9516 7.73113L69.9573 7.73674L70.6587 7.024ZM72.1707 19V20H73.1707V19H72.1707ZM68.8107 19H67.8107V20H68.8107V19ZM68.0187 9.28L67.2911 9.96601L67.2961 9.97128L67.3011 9.97647L68.0187 9.28ZM63.6747 9.28L62.9574 8.58321L62.9571 8.58352L63.6747 9.28ZM62.8827 19V20H63.8827V19H62.8827ZM59.5227 19H58.5227V20H59.5227V19ZM58.7307 9.28L58.0031 9.96601L58.0081 9.97128L58.0131 9.97647L58.7307 9.28ZM54.3627 9.28L53.6454 8.58321L53.6451 8.58352L54.3627 9.28ZM53.5707 19V20H54.5707V19H53.5707ZM50.2107 19H49.2107V20H50.2107V19ZM50.2107 5.704V4.704H49.2107V5.704H50.2107ZM53.5707 5.704H54.5707V4.704H53.5707V5.704ZM53.5707 7.312H52.5707V10.2455L54.3625 7.9228L53.5707 7.312ZM55.2267 5.992L54.8049 5.08524L54.7968 5.08914L55.2267 5.992ZM60.2667 6.184L59.7854 7.06058L59.7921 7.06423L59.7988 7.06779L60.2667 6.184ZM62.1627 8.056L61.2861 8.53726L62.1521 10.1146L63.0343 8.54626L62.1627 8.056ZM64.0347 6.208L63.5476 5.3346L63.5404 5.33871L64.0347 6.208ZM66.7227 6.512C68.1315 6.512 69.1712 6.93817 69.9459 7.72543L71.3714 6.32257C70.1622 5.09383 68.5779 4.512 66.7227 4.512V6.512ZM69.9573 7.73674C70.7265 8.49373 71.1707 9.60054 71.1707 11.2H73.1707C73.1707 9.21546 72.6069 7.53827 71.3601 6.31126L69.9573 7.73674ZM71.1707 11.2V19H73.1707V11.2H71.1707ZM72.1707 18H68.8107V20H72.1707V18ZM69.8107 19V11.656H67.8107V19H69.8107ZM69.8107 11.656C69.8107 10.4544 69.504 9.3745 68.7363 8.58352L67.3011 9.97647C67.5894 10.2735 67.8107 10.7776 67.8107 11.656H69.8107ZM68.7463 8.59399C67.9945 7.79666 66.9909 7.44 65.8587 7.44V9.44C66.5505 9.44 66.9869 9.64334 67.2911 9.96601L68.7463 8.59399ZM65.8587 7.44C64.7257 7.44 63.7215 7.79667 62.9574 8.58321L64.392 9.97678C64.7159 9.64333 65.1677 9.44 65.8587 9.44V7.44ZM62.9571 8.58352C62.1894 9.3745 61.8827 10.4544 61.8827 11.656H63.8827C63.8827 10.7776 64.104 10.2735 64.3923 9.97647L62.9571 8.58352ZM61.8827 11.656V19H63.8827V11.656H61.8827ZM62.8827 18H59.5227V20H62.8827V18ZM60.5227 19V11.656H58.5227V19H60.5227ZM60.5227 11.656C60.5227 10.4544 60.216 9.3745 59.4483 8.58352L58.0131 9.97647C58.3014 10.2735 58.5227 10.7776 58.5227 11.656H60.5227ZM59.4583 8.59399C58.7065 7.79666 57.7029 7.44 56.5707 7.44V9.44C57.2625 9.44 57.6989 9.64334 58.0031 9.96601L59.4583 8.59399ZM56.5707 7.44C55.4274 7.44 54.4129 7.7932 53.6454 8.58321L55.08 9.97678C55.4005 9.6468 55.858 9.44 56.5707 9.44V7.44ZM53.6451 8.58352C52.8774 9.3745 52.5707 10.4544 52.5707 11.656H54.5707C54.5707 10.7776 54.792 10.2735 55.0803 9.97647L53.6451 8.58352ZM52.5707 11.656V19H54.5707V11.656H52.5707ZM53.5707 18H50.2107V20H53.5707V18ZM51.2107 19V5.704H49.2107V19H51.2107ZM50.2107 6.704H53.5707V4.704H50.2107V6.704ZM52.5707 5.704V7.312H54.5707V5.704H52.5707ZM54.3625 7.9228C54.6934 7.49377 55.1189 7.15093 55.6566 6.89486L54.7968 5.08914C53.9905 5.47306 53.3119 6.01023 52.7789 6.7012L54.3625 7.9228ZM55.6484 6.89872C56.1945 6.64471 56.8012 6.512 57.4827 6.512V4.512C56.5322 4.512 55.6348 4.69929 54.805 5.08528L55.6484 6.89872ZM57.4827 6.512C58.3745 6.512 59.1336 6.70269 59.7854 7.06058L60.7479 5.30742C59.7678 4.76931 58.6709 4.512 57.4827 4.512V6.512ZM59.7988 7.06779C60.4407 7.40761 60.9313 7.89097 61.2861 8.53726L63.0393 7.57474C62.4981 6.58903 61.7247 5.82439 60.7346 5.30021L59.7988 7.06779ZM63.0343 8.54626C63.3714 7.94692 63.8601 7.45763 64.529 7.07729L63.5404 5.33871C62.5773 5.88636 61.818 6.62908 61.2911 7.56574L63.0343 8.54626ZM64.5218 7.08136C65.2036 6.70108 65.9318 6.512 66.7227 6.512V4.512C65.5936 4.512 64.5297 4.78692 63.5476 5.33463L64.5218 7.08136ZM75.5751 3.568L74.868 4.27511L74.8827 4.28983L74.8981 4.30393L75.5751 3.568ZM75.5751 0.759999L76.267 1.48199L76.2677 1.48139L75.5751 0.759999ZM78.5271 0.759999L77.82 1.46711L77.8347 1.48183L77.8501 1.49593L78.5271 0.759999ZM78.5271 3.568L79.219 4.28999L79.2197 4.28939L78.5271 3.568ZM78.7191 5.704H79.7191V4.704H78.7191V5.704ZM78.7191 19V20H79.7191V19H78.7191ZM75.3591 19H74.3591V20H75.3591V19ZM75.3591 5.704V4.704H74.3591V5.704H75.3591ZM77.0631 3.12C76.6976 3.12 76.4504 3.01447 76.2522 2.83207L74.8981 4.30393C75.4998 4.85753 76.2446 5.12 77.0631 5.12V3.12ZM76.2822 2.86089C76.0922 2.67087 75.9991 2.45603 75.9991 2.152H73.9991C73.9991 2.96796 74.29 3.69713 74.868 4.27511L76.2822 2.86089ZM75.9991 2.152C75.9991 1.84845 76.0912 1.65049 76.267 1.48199L74.8832 0.0380106C74.291 0.605508 73.9991 1.33555 73.9991 2.152H75.9991ZM76.2677 1.48139C76.468 1.28905 76.7101 1.184 77.0631 1.184V-0.816001C76.2322 -0.816001 75.4822 -0.537054 74.8826 0.0386114L76.2677 1.48139ZM77.0631 1.184C77.4162 1.184 77.6414 1.28847 77.82 1.46711L79.2342 0.0528917C78.6449 -0.536475 77.894 -0.816001 77.0631 -0.816001V1.184ZM77.8501 1.49593C78.0373 1.66816 78.1271 1.86207 78.1271 2.152H80.1271C80.1271 1.32193 79.817 0.587833 79.2042 0.0240679L77.8501 1.49593ZM78.1271 2.152C78.1271 2.44277 78.036 2.6533 77.8346 2.84661L79.2197 4.28939C79.8183 3.7147 80.1271 2.98123 80.1271 2.152H78.1271ZM77.8352 2.84601C77.6591 3.0148 77.429 3.12 77.0631 3.12V5.12C77.8813 5.12 78.6272 4.8572 79.219 4.28999L77.8352 2.84601ZM77.7191 5.704V19H79.7191V5.704H77.7191ZM78.7191 18H75.3591V20H78.7191V18ZM76.3591 19V5.704H74.3591V19H76.3591ZM75.3591 6.704H78.7191V4.704H75.3591V6.704ZM102.487 7.024L101.774 7.72543L101.78 7.73113L101.785 7.73674L102.487 7.024ZM103.999 19V20H104.999V19H103.999ZM100.639 19H99.6388V20H100.639V19ZM99.8468 9.28L99.1192 9.96601L99.1242 9.97128L99.1292 9.97647L99.8468 9.28ZM95.5028 9.28L94.7855 8.58321L94.7852 8.58352L95.5028 9.28ZM94.7108 19V20H95.7108V19H94.7108ZM91.3508 19H90.3508V20H91.3508V19ZM90.5588 9.28L89.8312 9.96601L89.8362 9.97128L89.8412 9.97647L90.5588 9.28ZM86.1908 9.28L85.4735 8.58321L85.4732 8.58352L86.1908 9.28ZM85.3988 19V20H86.3988V19H85.3988ZM82.0388 19H81.0388V20H82.0388V19ZM82.0388 5.704V4.704H81.0388V5.704H82.0388ZM85.3988 5.704H86.3988V4.704H85.3988V5.704ZM85.3988 7.312H84.3988V10.2455L86.1906 7.9228L85.3988 7.312ZM87.0548 5.992L86.6331 5.08524L86.6249 5.08914L87.0548 5.992ZM92.0948 6.184L91.6136 7.06058L91.6202 7.06423L91.6269 7.06779L92.0948 6.184ZM93.9908 8.056L93.1142 8.53726L93.9802 10.1146L94.8624 8.54626L93.9908 8.056ZM95.8628 6.208L95.3757 5.3346L95.3685 5.33871L95.8628 6.208ZM98.5508 6.512C99.9596 6.512 100.999 6.93817 101.774 7.72543L103.2 6.32257C101.99 5.09383 100.406 4.512 98.5508 4.512V6.512ZM101.785 7.73674C102.555 8.49373 102.999 9.60054 102.999 11.2H104.999C104.999 9.21546 104.435 7.53827 103.188 6.31126L101.785 7.73674ZM102.999 11.2V19H104.999V11.2H102.999ZM103.999 18H100.639V20H103.999V18ZM101.639 19V11.656H99.6388V19H101.639ZM101.639 11.656C101.639 10.4544 101.332 9.3745 100.564 8.58352L99.1292 9.97647C99.4175 10.2735 99.6388 10.7776 99.6388 11.656H101.639ZM100.574 8.59399C99.8226 7.79666 98.819 7.44 97.6868 7.44V9.44C98.3786 9.44 98.815 9.64334 99.1192 9.96601L100.574 8.59399ZM97.6868 7.44C96.5538 7.44 95.5496 7.79667 94.7855 8.58321L96.2201 9.97678C96.544 9.64333 96.9958 9.44 97.6868 9.44V7.44ZM94.7852 8.58352C94.0175 9.3745 93.7108 10.4544 93.7108 11.656H95.7108C95.7108 10.7776 95.9321 10.2735 96.2204 9.97647L94.7852 8.58352ZM93.7108 11.656V19H95.7108V11.656H93.7108ZM94.7108 18H91.3508V20H94.7108V18ZM92.3508 19V11.656H90.3508V19H92.3508ZM92.3508 11.656C92.3508 10.4544 92.0441 9.3745 91.2764 8.58352L89.8412 9.97647C90.1295 10.2735 90.3508 10.7776 90.3508 11.656H92.3508ZM91.2864 8.59399C90.5346 7.79666 89.531 7.44 88.3988 7.44V9.44C89.0906 9.44 89.527 9.64334 89.8312 9.96601L91.2864 8.59399ZM88.3988 7.44C87.2555 7.44 86.241 7.7932 85.4735 8.58321L86.9081 9.97678C87.2286 9.6468 87.6861 9.44 88.3988 9.44V7.44ZM85.4732 8.58352C84.7055 9.3745 84.3988 10.4544 84.3988 11.656H86.3988C86.3988 10.7776 86.6201 10.2735 86.9084 9.97647L85.4732 8.58352ZM84.3988 11.656V19H86.3988V11.656H84.3988ZM85.3988 18H82.0388V20H85.3988V18ZM83.0388 19V5.704H81.0388V19H83.0388ZM82.0388 6.704H85.3988V4.704H82.0388V6.704ZM84.3988 5.704V7.312H86.3988V5.704H84.3988ZM86.1906 7.9228C86.5216 7.49377 86.947 7.15093 87.4847 6.89486L86.6249 5.08914C85.8186 5.47306 85.1401 6.01023 84.607 6.7012L86.1906 7.9228ZM87.4765 6.89872C88.0227 6.64471 88.6293 6.512 89.3108 6.512V4.512C88.3603 4.512 87.463 4.69929 86.6331 5.08528L87.4765 6.89872ZM89.3108 6.512C90.2026 6.512 90.9617 6.70269 91.6136 7.06058L92.5761 5.30742C91.5959 4.76931 90.499 4.512 89.3108 4.512V6.512ZM91.6269 7.06779C92.2688 7.40761 92.7594 7.89097 93.1142 8.53726L94.8674 7.57474C94.3262 6.58903 93.5528 5.82439 92.5627 5.30021L91.6269 7.06779ZM94.8624 8.54626C95.1995 7.94692 95.6882 7.45763 96.3571 7.07729L95.3685 5.33871C94.4054 5.88636 93.6461 6.62908 93.1192 7.56574L94.8624 8.54626ZM96.3499 7.08136C97.0318 6.70108 97.7599 6.512 98.5508 6.512V4.512C97.4217 4.512 96.3578 4.78692 95.3757 5.33463L96.3499 7.08136Z" fill="black"/>
</g>
<defs>
<filter id="filter0_d_5_32" x="0.624023" y="0.18396" width="107.375" height="26.816" filterUnits="userSpaceOnUse" color-interpolation-filters="sRGB">
<feFlood flood-opacity="0" result="BackgroundImageFix"/>
<feColorMatrix in="SourceAlpha" type="matrix" values="0 0 0 0 0 0 0 0 0 0 0 0 0 0 0 0 0 0 127 0" result="hardAlpha"/>
<feOffset dy="4"/>
<feGaussianBlur stdDeviation="2"/>
<feComposite in2="hardAlpha" operator="out"/>
<feColorMatrix type="matrix" values="0 0 0 0 0 0 0 0 0 0 0 0 0 0 0 0 0 0 0.25 0"/>
<feBlend mode="normal" in2="BackgroundImageFix" result="effect1_dropShadow_5_32"/>
<feBlend mode="normal" in="SourceGraphic" in2="effect1_dropShadow_5_32" result="shape"/>
</filter>
</defs>
</svg>
